<?xml version="1.0" encoding="UTF-8" standalone="no"?>
<!DOCTYPE svg PUBLIC "-//W3C//DTD SVG 1.1//EN"
 "http://www.w3.org/Graphics/SVG/1.1/DTD/svg11.dtd">
<!-- Generated by graphviz version 11.0.0 (20240428.1522)
 -->
<!-- Title: G Pages: 1 -->
<svg width="510pt" height="281pt"
 viewBox="0.00 0.00 510.00 281.00" xmlns="http://www.w3.org/2000/svg" xmlns:xlink="http://www.w3.org/1999/xlink">
<g id="graph0" class="graph" transform="scale(1 1) rotate(0) translate(4 277)">
<title>G</title>
<g id="clust1" class="cluster">
<title>clusterD</title>
<polygon fill="none" stroke="black" points="8,-8 8,-156.5 246,-156.5 246,-8 8,-8"/>
<text text-anchor="middle" x="127" y="-139.2" font-family="Times,serif" font-size="14.00" fill="white">Local</text>
</g>
<g id="clust3" class="cluster">
<title>clusterM</title>
<polygon fill="none" stroke="black" points="254,-8 254,-156.5 494,-156.5 494,-8 254,-8"/>
<text text-anchor="middle" x="374" y="-139.2" font-family="Times,serif" font-size="14.00" fill="white">Local</text>
</g>
<!-- SlaughterServerB -->
<g id="node1" class="node">
<title>SlaughterServerB</title>
<polygon fill="none" stroke="black" points="128,-124 16,-124 16,-88 128,-88 128,-124"/>
<text text-anchor="middle" x="72" y="-100.95" font-family="Times,serif" font-size="14.00" fill="#4eaeef">SlaughterServerB</text>
</g>
<!-- LocalDBB -->
<g id="node2" class="node">
<title>LocalDBB</title>
<polygon fill="none" stroke="black" points="238.25,-124 163.75,-124 163.75,-88 238.25,-88 238.25,-124"/>
<text text-anchor="middle" x="201" y="-100.95" font-family="Times,serif" font-size="14.00" fill="#4eaeef">LocalDBB</text>
</g>
<!-- SlaughterServerB&#45;&gt;LocalDBB -->
<g id="edge1" class="edge">
<title>SlaughterServerB&#45;&gt;LocalDBB</title>
<path fill="none" stroke="#a69fe0" d="M128.21,-106C136.14,-106 144.25,-106 152.03,-106"/>
<polygon fill="#a69fe0" stroke="#a69fe0" points="152.02,-109.5 162.02,-106 152.02,-102.5 152.02,-109.5"/>
</g>
<!-- SlaughterClientB -->
<g id="node3" class="node">
<title>SlaughterClientB</title>
<polygon fill="none" stroke="black" points="126.88,-52 17.12,-52 17.12,-16 126.88,-16 126.88,-52"/>
<text text-anchor="middle" x="72" y="-28.95" font-family="Times,serif" font-size="14.00" fill="#4eaeef">SlaughterClientB</text>
</g>
<!-- SlaughterServerB&#45;&gt;SlaughterClientB -->
<g id="edge2" class="edge">
<title>SlaughterServerB&#45;&gt;SlaughterClientB</title>
<path fill="none" stroke="#a69fe0" d="M72,-87.7C72,-80.41 72,-71.73 72,-63.54"/>
<polygon fill="#a69fe0" stroke="#a69fe0" points="75.5,-63.62 72,-53.62 68.5,-63.62 75.5,-63.62"/>
</g>
<!-- SlaughterServerA -->
<g id="node4" class="node">
<title>SlaughterServerA</title>
<polygon fill="none" stroke="black" points="374.38,-124 261.62,-124 261.62,-88 374.38,-88 374.38,-124"/>
<text text-anchor="middle" x="318" y="-100.95" font-family="Times,serif" font-size="14.00" fill="#c475db">SlaughterServerA</text>
</g>
<!-- LocalDBA -->
<g id="node5" class="node">
<title>LocalDBA</title>
<polygon fill="none" stroke="black" points="485.62,-124 410.38,-124 410.38,-88 485.62,-88 485.62,-124"/>
<text text-anchor="middle" x="448" y="-100.95" font-family="Times,serif" font-size="14.00" fill="#c475db">LocalDBA</text>
</g>
<!-- SlaughterServerA&#45;&gt;LocalDBA -->
<g id="edge3" class="edge">
<title>SlaughterServerA&#45;&gt;LocalDBA</title>
<path fill="none" stroke="#a69fe0" d="M374.64,-106C382.73,-106 391,-106 398.93,-106"/>
<polygon fill="#a69fe0" stroke="#a69fe0" points="398.73,-109.5 408.73,-106 398.73,-102.5 398.73,-109.5"/>
</g>
<!-- SlaughterClientA -->
<g id="node6" class="node">
<title>SlaughterClientA</title>
<polygon fill="none" stroke="black" points="373.25,-52 262.75,-52 262.75,-16 373.25,-16 373.25,-52"/>
<text text-anchor="middle" x="318" y="-28.95" font-family="Times,serif" font-size="14.00" fill="#c475db">SlaughterClientA</text>
</g>
<!-- SlaughterServerA&#45;&gt;SlaughterClientA -->
<g id="edge4" class="edge">
<title>SlaughterServerA&#45;&gt;SlaughterClientA</title>
<path fill="none" stroke="#a69fe0" d="M318,-87.7C318,-80.41 318,-71.73 318,-63.54"/>
<polygon fill="#a69fe0" stroke="#a69fe0" points="321.5,-63.62 318,-53.62 314.5,-63.62 321.5,-63.62"/>
</g>
<!-- EBS -->
<g id="node7" class="node">
<title>EBS</title>
<polygon fill="none" stroke="black" points="222,-273 168,-273 168,-237 222,-237 222,-273"/>
<text text-anchor="middle" x="195" y="-249.95" font-family="Times,serif" font-size="14.00" fill="#4eaeef">EBS</text>
</g>
<!-- EBS&#45;&gt;SlaughterServerB -->
<g id="edge6" class="edge">
<title>EBS&#45;&gt;SlaughterServerB</title>
<path fill="none" stroke="#a69fe0" d="M172.42,-228.57C157.82,-211.13 138.02,-187.46 119.81,-165.69"/>
<path fill="none" stroke="#c475db" d="M173.95,-227.29C159.36,-209.84 139.56,-186.18 121.34,-164.41"/>
<polygon fill="#c475db" stroke="#c475db" points="170.33,-229.98 179.44,-235.4 175.7,-225.48 170.33,-229.98"/>
<polygon fill="#a69fe0" stroke="#a69fe0" points="123.49,-163.08 114.39,-157.66 118.12,-167.58 123.49,-163.08"/>
<text text-anchor="middle" x="152" y="-186.7" font-family="Times,serif" font-size="14.00" fill="white">ϟ</text>
</g>
<!-- EBS&#45;&gt;SlaughterServerA -->
<g id="edge5" class="edge">
<title>EBS&#45;&gt;SlaughterServerA</title>
<path fill="none" stroke="#a69fe0" d="M216.81,-227.93C231.41,-210.48 251.21,-186.82 269.43,-165.05"/>
<polygon fill="#a69fe0" stroke="#a69fe0" points="214.3,-225.48 210.56,-235.4 219.67,-229.98 214.3,-225.48"/>
<polygon fill="#a69fe0" stroke="#a69fe0" points="271.88,-167.58 275.61,-157.66 266.51,-163.08 271.88,-167.58"/>
<text text-anchor="middle" x="256" y="-186.7" font-family="Times,serif" font-size="14.00" fill="white">ϟ</text>
</g>
</g>
</svg>
