<?xml version="1.0" encoding="UTF-8" standalone="no"?>
<!DOCTYPE svg PUBLIC "-//W3C//DTD SVG 1.1//EN"
 "http://www.w3.org/Graphics/SVG/1.1/DTD/svg11.dtd">
<!-- Generated by graphviz version 9.0.0 (20230911.1827)
 -->
<!-- Title: G Pages: 1 -->
<svg width="510pt" height="282pt"
 viewBox="0.00 0.00 510.00 282.00" xmlns="http://www.w3.org/2000/svg" xmlns:xlink="http://www.w3.org/1999/xlink">
<g id="graph0" class="graph" transform="scale(1 1) rotate(0) translate(4 278)">
<title>G</title>
<g id="clust3" class="cluster">
<title>clusterM</title>
<polygon fill="none" stroke="black" points="254,-8 254,-157.5 494,-157.5 494,-8 254,-8"/>
<text text-anchor="middle" x="374" y="-140.2" font-family="Times,serif" font-size="14.00" fill="white">Local</text>
</g>
<g id="clust1" class="cluster">
<title>clusterD</title>
<polygon fill="none" stroke="black" points="8,-8 8,-157.5 246,-157.5 246,-8 8,-8"/>
<text text-anchor="middle" x="127" y="-140.2" font-family="Times,serif" font-size="14.00" fill="white">Local</text>
</g>
<!-- SlaughterServerB -->
<g id="node1" class="node">
<title>SlaughterServerB</title>
<polygon fill="none" stroke="black" points="128,-125 16,-125 16,-89 128,-89 128,-125"/>
<text text-anchor="middle" x="72" y="-101.95" font-family="Times,serif" font-size="14.00" fill="#4eaeef">SlaughterServerB</text>
</g>
<!-- LocalDBB -->
<g id="node2" class="node">
<title>LocalDBB</title>
<polygon fill="none" stroke="black" points="238.25,-125 163.75,-125 163.75,-89 238.25,-89 238.25,-125"/>
<text text-anchor="middle" x="201" y="-101.95" font-family="Times,serif" font-size="14.00" fill="#4eaeef">LocalDBB</text>
</g>
<!-- SlaughterServerB&#45;&gt;LocalDBB -->
<g id="edge1" class="edge">
<title>SlaughterServerB&#45;&gt;LocalDBB</title>
<path fill="none" stroke="#a69fe0" d="M128.44,-107C136.25,-107 144.05,-107 151.86,-107"/>
<polygon fill="#a69fe0" stroke="#a69fe0" points="151.79,-110.5 161.79,-107 151.79,-103.5 151.79,-110.5"/>
</g>
<!-- SlaughterClientB -->
<g id="node3" class="node">
<title>SlaughterClientB</title>
<polygon fill="none" stroke="black" points="126.88,-52 17.12,-52 17.12,-16 126.88,-16 126.88,-52"/>
<text text-anchor="middle" x="72" y="-28.95" font-family="Times,serif" font-size="14.00" fill="#4eaeef">SlaughterClientB</text>
</g>
<!-- SlaughterServerB&#45;&gt;SlaughterClientB -->
<g id="edge2" class="edge">
<title>SlaughterServerB&#45;&gt;SlaughterClientB</title>
<path fill="none" stroke="#a69fe0" d="M72,-88.81C72,-81.23 72,-72.1 72,-63.54"/>
<polygon fill="#a69fe0" stroke="#a69fe0" points="75.5,-63.54 72,-53.54 68.5,-63.54 75.5,-63.54"/>
</g>
<!-- SlaughterServerA -->
<g id="node4" class="node">
<title>SlaughterServerA</title>
<polygon fill="none" stroke="black" points="374.38,-125 261.62,-125 261.62,-89 374.38,-89 374.38,-125"/>
<text text-anchor="middle" x="318" y="-101.95" font-family="Times,serif" font-size="14.00" fill="#c475db">SlaughterServerA</text>
</g>
<!-- LocalDBA -->
<g id="node5" class="node">
<title>LocalDBA</title>
<polygon fill="none" stroke="black" points="485.62,-125 410.38,-125 410.38,-89 485.62,-89 485.62,-125"/>
<text text-anchor="middle" x="448" y="-101.95" font-family="Times,serif" font-size="14.00" fill="#c475db">LocalDBA</text>
</g>
<!-- SlaughterServerA&#45;&gt;LocalDBA -->
<g id="edge3" class="edge">
<title>SlaughterServerA&#45;&gt;LocalDBA</title>
<path fill="none" stroke="#a69fe0" d="M374.88,-107C382.84,-107 390.8,-107 398.76,-107"/>
<polygon fill="#a69fe0" stroke="#a69fe0" points="398.5,-110.5 408.5,-107 398.5,-103.5 398.5,-110.5"/>
</g>
<!-- SlaughterClientA -->
<g id="node6" class="node">
<title>SlaughterClientA</title>
<polygon fill="none" stroke="black" points="373.25,-52 262.75,-52 262.75,-16 373.25,-16 373.25,-52"/>
<text text-anchor="middle" x="318" y="-28.95" font-family="Times,serif" font-size="14.00" fill="#c475db">SlaughterClientA</text>
</g>
<!-- SlaughterServerA&#45;&gt;SlaughterClientA -->
<g id="edge4" class="edge">
<title>SlaughterServerA&#45;&gt;SlaughterClientA</title>
<path fill="none" stroke="#a69fe0" d="M318,-88.81C318,-81.23 318,-72.1 318,-63.54"/>
<polygon fill="#a69fe0" stroke="#a69fe0" points="321.5,-63.54 318,-53.54 314.5,-63.54 321.5,-63.54"/>
</g>
<!-- EBS -->
<g id="node7" class="node">
<title>EBS</title>
<polygon fill="none" stroke="black" points="222,-274 168,-274 168,-238 222,-238 222,-274"/>
<text text-anchor="middle" x="195" y="-250.95" font-family="Times,serif" font-size="14.00" fill="#4eaeef">EBS</text>
</g>
<!-- EBS&#45;&gt;SlaughterServerB -->
<g id="edge6" class="edge">
<title>EBS&#45;&gt;SlaughterServerB</title>
<path fill="none" stroke="#a69fe0" d="M172.42,-229.57C157.82,-212.13 138.02,-188.46 119.81,-166.69"/>
<path fill="none" stroke="#c475db" d="M173.95,-228.29C159.36,-210.84 139.56,-187.18 121.34,-165.41"/>
<polygon fill="#c475db" stroke="#c475db" points="170.33,-230.98 179.44,-236.4 175.7,-226.48 170.33,-230.98"/>
<polygon fill="#a69fe0" stroke="#a69fe0" points="123.49,-164.08 114.39,-158.66 118.12,-168.58 123.49,-164.08"/>
<text text-anchor="middle" x="152" y="-187.7" font-family="Times,serif" font-size="14.00" fill="white">ϟ</text>
</g>
<!-- EBS&#45;&gt;SlaughterServerA -->
<g id="edge5" class="edge">
<title>EBS&#45;&gt;SlaughterServerA</title>
<path fill="none" stroke="#a69fe0" d="M216.81,-228.93C231.41,-211.48 251.21,-187.82 269.43,-166.05"/>
<polygon fill="#a69fe0" stroke="#a69fe0" points="214.3,-226.48 210.56,-236.4 219.67,-230.98 214.3,-226.48"/>
<polygon fill="#a69fe0" stroke="#a69fe0" points="271.88,-168.58 275.61,-158.66 266.51,-164.08 271.88,-168.58"/>
<text text-anchor="middle" x="256" y="-187.7" font-family="Times,serif" font-size="14.00" fill="white">ϟ</text>
</g>
</g>
</svg>
