<?xml version="1.0" encoding="UTF-8" standalone="no"?>
<!DOCTYPE svg PUBLIC "-//W3C//DTD SVG 1.1//EN"
 "http://www.w3.org/Graphics/SVG/1.1/DTD/svg11.dtd">
<!-- Generated by graphviz version 8.1.0 (20230707.0739)
 -->
<!-- Title: G Pages: 1 -->
<svg width="510pt" height="282pt"
 viewBox="0.00 0.00 510.00 282.00" xmlns="http://www.w3.org/2000/svg" xmlns:xlink="http://www.w3.org/1999/xlink">
<g id="graph0" class="graph" transform="scale(1 1) rotate(0) translate(4 278)">
<title>G</title>
<g id="clust1" class="cluster">
<title>clusterD</title>
<polygon fill="none" stroke="black" points="8,-8 8,-157.5 246,-157.5 246,-8 8,-8"/>
<text text-anchor="middle" x="127" y="-140.2" font-family="Times,serif" font-size="14.00" fill="white">Local</text>
</g>
<g id="clust3" class="cluster">
<title>clusterM</title>
<polygon fill="none" stroke="black" points="254,-8 254,-157.5 494,-157.5 494,-8 254,-8"/>
<text text-anchor="middle" x="374" y="-140.2" font-family="Times,serif" font-size="14.00" fill="white">Local</text>
</g>
<!-- SlaughterServerB -->
<g id="node1" class="node">
<title>SlaughterServerB</title>
<polygon fill="none" stroke="black" points="128,-125 16,-125 16,-89 128,-89 128,-125"/>
<text text-anchor="middle" x="72" y="-101.95" font-family="Times,serif" font-size="14.00" fill="#4eaeef">SlaughterServerB</text>
</g>
<!-- LocalDBB -->
<g id="node2" class="node">
<title>LocalDBB</title>
<polygon fill="none" stroke="black" points="238.25,-125 163.75,-125 163.75,-89 238.25,-89 238.25,-125"/>
<text text-anchor="middle" x="201" y="-101.95" font-family="Times,serif" font-size="14.00" fill="#4eaeef">LocalDBB</text>
</g>
<!-- SlaughterServerB&#45;&gt;LocalDBB -->
<g id="edge1" class="edge">
<title>SlaughterServerB&#45;&gt;LocalDBB</title>
<path fill="none" stroke="#a69fe0" d="M128.44,-107C136.43,-107 144.42,-107 152.41,-107"/>
<polygon fill="#a69fe0" stroke="#a69fe0" points="152.3,-110.5 162.3,-107 152.3,-103.5 152.3,-110.5"/>
</g>
<!-- SlaughterClientB -->
<g id="node3" class="node">
<title>SlaughterClientB</title>
<polygon fill="none" stroke="black" points="126.88,-52 17.12,-52 17.12,-16 126.88,-16 126.88,-52"/>
<text text-anchor="middle" x="72" y="-28.95" font-family="Times,serif" font-size="14.00" fill="#4eaeef">SlaughterClientB</text>
</g>
<!-- SlaughterServerB&#45;&gt;SlaughterClientB -->
<g id="edge2" class="edge">
<title>SlaughterServerB&#45;&gt;SlaughterClientB</title>
<path fill="none" stroke="#a69fe0" d="M72,-88.81C72,-81.05 72,-71.68 72,-62.95"/>
<polygon fill="#a69fe0" stroke="#a69fe0" points="75.5,-63.03 72,-53.03 68.5,-63.03 75.5,-63.03"/>
</g>
<!-- SlaughterServerA -->
<g id="node4" class="node">
<title>SlaughterServerA</title>
<polygon fill="none" stroke="black" points="374.38,-125 261.62,-125 261.62,-89 374.38,-89 374.38,-125"/>
<text text-anchor="middle" x="318" y="-101.95" font-family="Times,serif" font-size="14.00" fill="#c475db">SlaughterServerA</text>
</g>
<!-- LocalDBA -->
<g id="node5" class="node">
<title>LocalDBA</title>
<polygon fill="none" stroke="black" points="485.62,-125 410.38,-125 410.38,-89 485.62,-89 485.62,-125"/>
<text text-anchor="middle" x="448" y="-101.95" font-family="Times,serif" font-size="14.00" fill="#c475db">LocalDBA</text>
</g>
<!-- SlaughterServerA&#45;&gt;LocalDBA -->
<g id="edge3" class="edge">
<title>SlaughterServerA&#45;&gt;LocalDBA</title>
<path fill="none" stroke="#a69fe0" d="M374.88,-107C382.93,-107 390.98,-107 399.03,-107"/>
<polygon fill="#a69fe0" stroke="#a69fe0" points="399.01,-110.5 409.01,-107 399.01,-103.5 399.01,-110.5"/>
</g>
<!-- SlaughterClientA -->
<g id="node6" class="node">
<title>SlaughterClientA</title>
<polygon fill="none" stroke="black" points="373.25,-52 262.75,-52 262.75,-16 373.25,-16 373.25,-52"/>
<text text-anchor="middle" x="318" y="-28.95" font-family="Times,serif" font-size="14.00" fill="#c475db">SlaughterClientA</text>
</g>
<!-- SlaughterServerA&#45;&gt;SlaughterClientA -->
<g id="edge4" class="edge">
<title>SlaughterServerA&#45;&gt;SlaughterClientA</title>
<path fill="none" stroke="#a69fe0" d="M318,-88.81C318,-81.05 318,-71.68 318,-62.95"/>
<polygon fill="#a69fe0" stroke="#a69fe0" points="321.5,-63.03 318,-53.03 314.5,-63.03 321.5,-63.03"/>
</g>
<!-- EBS -->
<g id="node7" class="node">
<title>EBS</title>
<polygon fill="none" stroke="black" points="222,-274 168,-274 168,-238 222,-238 222,-274"/>
<text text-anchor="middle" x="195" y="-250.95" font-family="Times,serif" font-size="14.00" fill="#4eaeef">EBS</text>
</g>
<!-- EBS&#45;&gt;SlaughterServerB -->
<g id="edge6" class="edge">
<title>EBS&#45;&gt;SlaughterServerB</title>
<path fill="none" stroke="#a69fe0" d="M172.74,-229.96C158.06,-212.41 138.01,-188.45 119.61,-166.45"/>
<path fill="none" stroke="#c475db" d="M174.27,-228.67C159.6,-211.13 139.55,-187.17 121.14,-165.17"/>
<polygon fill="#c475db" stroke="#c475db" points="171.31,-231.14 180.41,-236.56 176.67,-226.64 171.31,-231.14"/>
<polygon fill="#a69fe0" stroke="#a69fe0" points="122.52,-163.92 113.41,-158.5 117.15,-168.41 122.52,-163.92"/>
<text text-anchor="middle" x="152" y="-187.7" font-family="Times,serif" font-size="14.00" fill="white">ϟ</text>
</g>
<!-- EBS&#45;&gt;SlaughterServerA -->
<g id="edge5" class="edge">
<title>EBS&#45;&gt;SlaughterServerA</title>
<path fill="none" stroke="#a69fe0" d="M216.49,-229.31C231.17,-211.77 251.22,-187.81 269.63,-165.81"/>
<polygon fill="#a69fe0" stroke="#a69fe0" points="213.33,-226.64 209.59,-236.56 218.69,-231.14 213.33,-226.64"/>
<polygon fill="#a69fe0" stroke="#a69fe0" points="272.85,-168.41 276.59,-158.5 267.48,-163.92 272.85,-168.41"/>
<text text-anchor="middle" x="256" y="-187.7" font-family="Times,serif" font-size="14.00" fill="white">ϟ</text>
</g>
</g>
</svg>
