<?xml version="1.0" encoding="UTF-8" standalone="no"?>
<!DOCTYPE svg PUBLIC "-//W3C//DTD SVG 1.1//EN"
 "http://www.w3.org/Graphics/SVG/1.1/DTD/svg11.dtd">
<!-- Generated by graphviz version 7.1.0 (20230121.1956)
 -->
<!-- Title: G Pages: 1 -->
<svg width="514pt" height="279pt"
 viewBox="0.00 0.00 514.00 279.00" xmlns="http://www.w3.org/2000/svg" xmlns:xlink="http://www.w3.org/1999/xlink">
<g id="graph0" class="graph" transform="scale(1 1) rotate(0) translate(4 275)">
<title>G</title>
<g id="clust1" class="cluster">
<title>clusterD</title>
<polygon fill="none" stroke="black" points="8,-8 8,-156 249,-156 249,-8 8,-8"/>
<text text-anchor="middle" x="128.5" y="-140.8" font-family="Times,serif" font-size="14.00" fill="white">Local</text>
</g>
<g id="clust3" class="cluster">
<title>clusterM</title>
<polygon fill="none" stroke="black" points="257,-8 257,-156 498,-156 498,-8 257,-8"/>
<text text-anchor="middle" x="377.5" y="-140.8" font-family="Times,serif" font-size="14.00" fill="white">Local</text>
</g>
<!-- SlaughterServerB -->
<g id="node1" class="node">
<title>SlaughterServerB</title>
<polygon fill="none" stroke="black" points="129.5,-125 16.5,-125 16.5,-89 129.5,-89 129.5,-125"/>
<text text-anchor="middle" x="73" y="-103.3" font-family="Times,serif" font-size="14.00" fill="#4eaeef">SlaughterServerB</text>
</g>
<!-- LocalDBB -->
<g id="node2" class="node">
<title>LocalDBB</title>
<polygon fill="none" stroke="black" points="240.5,-125 165.5,-125 165.5,-89 240.5,-89 240.5,-125"/>
<text text-anchor="middle" x="203" y="-103.3" font-family="Times,serif" font-size="14.00" fill="#4eaeef">LocalDBB</text>
</g>
<!-- SlaughterServerB&#45;&gt;LocalDBB -->
<g id="edge1" class="edge">
<title>SlaughterServerB&#45;&gt;LocalDBB</title>
<path fill="none" stroke="#a69fe0" d="M129.88,-107C137.84,-107 145.8,-107 153.76,-107"/>
<polygon fill="#a69fe0" stroke="#a69fe0" points="153.5,-110.5 163.5,-107 153.5,-103.5 153.5,-110.5"/>
</g>
<!-- SlaughterClientB -->
<g id="node3" class="node">
<title>SlaughterClientB</title>
<polygon fill="none" stroke="black" points="128,-52 18,-52 18,-16 128,-16 128,-52"/>
<text text-anchor="middle" x="73" y="-30.3" font-family="Times,serif" font-size="14.00" fill="#4eaeef">SlaughterClientB</text>
</g>
<!-- SlaughterServerB&#45;&gt;SlaughterClientB -->
<g id="edge2" class="edge">
<title>SlaughterServerB&#45;&gt;SlaughterClientB</title>
<path fill="none" stroke="#a69fe0" d="M73,-88.81C73,-81.23 73,-72.1 73,-63.54"/>
<polygon fill="#a69fe0" stroke="#a69fe0" points="76.5,-63.54 73,-53.54 69.5,-63.54 76.5,-63.54"/>
</g>
<!-- SlaughterServerA -->
<g id="node4" class="node">
<title>SlaughterServerA</title>
<polygon fill="none" stroke="black" points="378.5,-125 265.5,-125 265.5,-89 378.5,-89 378.5,-125"/>
<text text-anchor="middle" x="322" y="-103.3" font-family="Times,serif" font-size="14.00" fill="#c475db">SlaughterServerA</text>
</g>
<!-- LocalDBA -->
<g id="node5" class="node">
<title>LocalDBA</title>
<polygon fill="none" stroke="black" points="490,-125 414,-125 414,-89 490,-89 490,-125"/>
<text text-anchor="middle" x="452" y="-103.3" font-family="Times,serif" font-size="14.00" fill="#c475db">LocalDBA</text>
</g>
<!-- SlaughterServerA&#45;&gt;LocalDBA -->
<g id="edge3" class="edge">
<title>SlaughterServerA&#45;&gt;LocalDBA</title>
<path fill="none" stroke="#a69fe0" d="M378.88,-107C386.68,-107 394.48,-107 402.29,-107"/>
<polygon fill="#a69fe0" stroke="#a69fe0" points="402.21,-110.5 412.21,-107 402.21,-103.5 402.21,-110.5"/>
</g>
<!-- SlaughterClientA -->
<g id="node6" class="node">
<title>SlaughterClientA</title>
<polygon fill="none" stroke="black" points="377.5,-52 266.5,-52 266.5,-16 377.5,-16 377.5,-52"/>
<text text-anchor="middle" x="322" y="-30.3" font-family="Times,serif" font-size="14.00" fill="#c475db">SlaughterClientA</text>
</g>
<!-- SlaughterServerA&#45;&gt;SlaughterClientA -->
<g id="edge4" class="edge">
<title>SlaughterServerA&#45;&gt;SlaughterClientA</title>
<path fill="none" stroke="#a69fe0" d="M322,-88.81C322,-81.23 322,-72.1 322,-63.54"/>
<polygon fill="#a69fe0" stroke="#a69fe0" points="325.5,-63.54 322,-53.54 318.5,-63.54 325.5,-63.54"/>
</g>
<!-- EBS -->
<g id="node7" class="node">
<title>EBS</title>
<polygon fill="none" stroke="black" points="224,-271 170,-271 170,-235 224,-235 224,-271"/>
<text text-anchor="middle" x="197" y="-249.3" font-family="Times,serif" font-size="14.00" fill="#4eaeef">EBS</text>
</g>
<!-- EBS&#45;&gt;SlaughterServerB -->
<g id="edge6" class="edge">
<title>EBS&#45;&gt;SlaughterServerB</title>
<path fill="none" stroke="#a69fe0" d="M174.03,-226.85C159.29,-209.74 139.35,-186.59 121.03,-165.31"/>
<path fill="none" stroke="#c475db" d="M175.54,-225.55C160.8,-208.43 140.87,-185.28 122.55,-164.01"/>
<polygon fill="#c475db" stroke="#c475db" points="171.88,-228.19 181.06,-233.48 177.18,-223.62 171.88,-228.19"/>
<polygon fill="#a69fe0" stroke="#a69fe0" points="124.5,-162.44 115.32,-157.14 119.19,-167 124.5,-162.44"/>
<text text-anchor="middle" x="153.5" y="-186.8" font-family="Times,serif" font-size="14.00" fill="white">ϟ</text>
</g>
<!-- EBS&#45;&gt;SlaughterServerA -->
<g id="edge5" class="edge">
<title>EBS&#45;&gt;SlaughterServerA</title>
<path fill="none" stroke="#a69fe0" d="M219.4,-226.2C234.25,-209.08 254.35,-185.94 272.81,-164.66"/>
<polygon fill="#a69fe0" stroke="#a69fe0" points="216.98,-223.64 213.07,-233.49 222.27,-228.23 216.98,-223.64"/>
<polygon fill="#a69fe0" stroke="#a69fe0" points="275.43,-166.99 279.34,-157.14 270.15,-162.4 275.43,-166.99"/>
<text text-anchor="middle" x="259.5" y="-186.8" font-family="Times,serif" font-size="14.00" fill="white">ϟ</text>
</g>
</g>
</svg>
