<svg version="1.1" xmlns="http://www.w3.org/2000/svg" viewBox="0 0 527.6171875 199.068359375" width="527.6171875" height="199.068359375">
  <!-- svg-source:excalidraw -->
  
  <defs>
    <style class="style-fonts">
      @font-face {
        font-family: "Virgil";
        src: url("https://excalidraw.com/Virgil.woff2");
      }
      @font-face {
        font-family: "Cascadia";
        src: url("https://excalidraw.com/Cascadia.woff2");
      }
    </style>
  </defs>
  <g stroke-linecap="round" transform="translate(384.375 10) rotate(0 36.80859375 33.958984375)"><path d="M28.95 1.35 C35.79 -0.36, 45.93 0.39, 52.59 3.18 C59.24 5.97, 65.36 12.31, 68.87 18.09 C72.39 23.87, 74.53 31.53, 73.66 37.87 C72.79 44.21, 68.47 51.35, 63.66 56.11 C58.85 60.86, 51.65 65, 44.81 66.42 C37.96 67.84, 29.24 67.1, 22.57 64.61 C15.9 62.12, 8.54 57.28, 4.78 51.47 C1.02 45.66, -0.65 36.43, 0.02 29.77 C0.69 23.11, 2.48 16.54, 8.82 11.5 C15.17 6.47, 31.72 1.01, 38.09 -0.45 C44.46 -1.9, 47 2.15, 47.05 2.76 M21.82 2.76 C28.13 -0.3, 38.44 -0.44, 45.57 0.8 C52.7 2.05, 59.9 5.26, 64.6 10.21 C69.31 15.17, 73.41 23.68, 73.81 30.53 C74.21 37.37, 70.6 45.31, 66.99 51.29 C63.38 57.26, 58.53 63.66, 52.14 66.37 C45.76 69.07, 36.05 69.43, 28.68 67.51 C21.32 65.6, 12.75 59.99, 7.94 54.87 C3.13 49.75, 0.16 43.3, -0.19 36.8 C-0.53 30.31, 2 21.42, 5.87 15.88 C9.74 10.34, 20.03 5.49, 23.03 3.57 C26.04 1.64, 23.86 3.81, 23.9 4.33" stroke="#000000" stroke-width="1" fill="none"></path></g><g stroke-linecap="round" transform="translate(336.1640625 68.595703125) rotate(0 36.80859375 33.958984375)"><path d="M35.95 -0.73 C42.62 -1.34, 51.02 1.31, 57.12 5.33 C63.22 9.34, 70.21 16.76, 72.55 23.36 C74.88 29.97, 73.52 38.5, 71.14 44.97 C68.77 51.44, 63.9 58.37, 58.32 62.19 C52.74 66, 44.93 67.98, 37.67 67.85 C30.41 67.72, 20.76 65.18, 14.76 61.42 C8.76 57.66, 3.88 51.67, 1.67 45.29 C-0.54 38.9, -0.57 29.54, 1.5 23.13 C3.58 16.72, 7.35 10.49, 14.1 6.81 C20.85 3.13, 36.19 1.8, 42.01 1.05 C47.82 0.3, 49 2, 48.98 2.3 M26.95 1.65 C33.38 -0.71, 41.94 -1.47, 48.82 0.53 C55.7 2.53, 63.88 8.19, 68.23 13.65 C72.59 19.11, 75.2 26.24, 74.94 33.28 C74.68 40.32, 71.48 50.32, 66.69 55.88 C61.9 61.44, 53.14 64.98, 46.18 66.64 C39.21 68.3, 31.36 68.25, 24.89 65.84 C18.42 63.42, 11.71 57.44, 7.35 52.15 C3 46.87, -1.23 40.68, -1.22 34.12 C-1.21 27.55, 2.62 18.07, 7.41 12.76 C12.19 7.45, 24.41 3.93, 27.49 2.24 C30.58 0.55, 25.71 2.17, 25.9 2.62" stroke="#000000" stroke-width="1" fill="none"></path></g><g stroke-linecap="round" transform="translate(444 57.564453125) rotate(0 36.80859375 33.958984375)"><path d="M37.08 -0.96 C43.87 -1.03, 52.44 3.82, 58.32 7.91 C64.2 11.99, 70.04 17.4, 72.38 23.56 C74.73 29.72, 74.68 38.39, 72.38 44.87 C70.08 51.34, 64.71 58.69, 58.6 62.41 C52.5 66.12, 43.14 67.45, 35.73 67.15 C28.32 66.85, 19.76 64.57, 14.13 60.61 C8.5 56.65, 4.08 49.85, 1.97 43.39 C-0.15 36.93, -0.93 28.21, 1.42 21.85 C3.77 15.49, 9.14 8.75, 16.09 5.23 C23.04 1.71, 38.02 1.32, 43.12 0.74 C48.22 0.16, 47.03 1.35, 46.68 1.75 M33.79 -0.07 C40.46 -1.01, 48.35 2.29, 54.33 5.96 C60.31 9.64, 66.85 15.95, 69.66 21.99 C72.47 28.03, 72.41 36.12, 71.19 42.19 C69.96 48.26, 67.46 54.09, 62.3 58.41 C57.13 62.72, 47.62 67.16, 40.2 68.08 C32.77 69, 24.12 67.6, 17.73 63.92 C11.34 60.25, 4.48 52.32, 1.85 46.03 C-0.79 39.75, 0.21 32.28, 1.91 26.2 C3.61 20.12, 6.64 14.01, 12.05 9.57 C17.46 5.12, 30.7 0.78, 34.39 -0.46 C38.07 -1.7, 34.22 1.6, 34.17 2.11" stroke="#000000" stroke-width="1" fill="none"></path></g><g stroke-linecap="round" transform="translate(398.515625 121.150390625) rotate(0 36.80859375 33.958984375)"><path d="M33.31 -0.61 C40.06 -1.86, 48.66 0.65, 54.86 4.03 C61.06 7.41, 67.59 13.63, 70.51 19.67 C73.42 25.71, 73.73 33.72, 72.34 40.28 C70.95 46.84, 67.36 54.58, 62.17 59.04 C56.99 63.5, 48.62 66.27, 41.24 67.03 C33.85 67.79, 24.11 66.88, 17.87 63.6 C11.63 60.32, 6.74 53.42, 3.79 47.36 C0.85 41.3, -0.96 33.47, 0.21 27.23 C1.38 20.99, 4.88 14.4, 10.83 9.92 C16.79 5.44, 31.15 1.98, 35.94 0.34 C40.74 -1.31, 39.73 -0.43, 39.6 0.07 M25.95 1.8 C32.16 -0.69, 41.69 -1.5, 48.66 0.55 C55.63 2.61, 63.37 8.36, 67.76 14.12 C72.14 19.87, 75.46 28.42, 74.97 35.06 C74.47 41.7, 69.46 48.59, 64.8 53.96 C60.13 59.34, 53.79 65.08, 46.96 67.3 C40.14 69.52, 30.8 69.9, 23.83 67.28 C16.87 64.67, 8.92 57.1, 5.19 51.59 C1.47 46.08, 0.9 40.72, 1.47 34.22 C2.04 27.71, 4.24 17.85, 8.63 12.56 C13.01 7.27, 25 4.35, 27.79 2.48 C30.57 0.61, 25.6 0.93, 25.33 1.36" stroke="#000000" stroke-width="1" fill="none"></path></g><g stroke-linecap="round" transform="translate(10 97.19140625) rotate(0 42.287109375 39.75)"><path d="M7.69 17.28 C7.69 17.28, 7.69 17.28, 7.69 17.28 M7.69 17.28 C7.69 17.28, 7.69 17.28, 7.69 17.28 M6.41 27.38 C8.95 18.52, 14.77 13.93, 23.9 5.21 M3.97 26.87 C12.37 19.35, 19.24 10.66, 23.23 5.25 M1.72 35.49 C6.85 29.14, 15.15 22.01, 27.73 7.64 M1.51 36.26 C7.97 28.37, 15.05 21.69, 28.14 6.05 M1.14 42.9 C12.87 31.55, 21.81 19.01, 32.06 6.54 M2.5 40.91 C8.64 34.14, 15.39 25.34, 33.85 6.24 M5.62 46.79 C10.61 36.31, 18.78 25.62, 38.43 6.82 M4.13 45.41 C12.31 36.49, 21.5 26.57, 38.51 5.26 M5.67 51.02 C21.4 34.88, 34.75 15.83, 48.47 -0.57 M4.75 50.22 C22.14 30.39, 37.66 12.21, 48.09 0.56 M5.65 56.76 C16.61 39.3, 32.4 26.49, 51.68 2.32 M6.77 54.56 C24 35.88, 41.12 15.97, 52.93 2.92 M7.39 61.42 C22.84 45.32, 34.79 26.18, 56.03 4.5 M7 61.67 C19.66 48.73, 29.59 35.01, 56.88 4.68 M8.15 64.94 C28.93 39.2, 49.78 16.09, 59.66 6.39 M9.36 63.44 C26.67 45.46, 42.72 26.07, 59.84 6.61 M11.85 67.01 C28.68 47.28, 45.77 29.34, 64.41 8.07 M12.68 65.89 C25.41 51.64, 36.91 37.27, 63.86 8.27 M17.04 67.66 C33.64 44.52, 53.35 25.01, 67.35 11.51 M15.45 68.12 C34.31 47.09, 54.5 26.17, 67.44 8.7 M20.49 69.6 C40.92 46.32, 59.83 25.27, 71.69 11.8 M20.06 70.94 C31.76 55.8, 46.05 39.95, 71.05 11.88 M21.41 72.38 C32.87 59.14, 45.43 45.25, 72.25 13.75 M21.71 73.33 C38.68 54.31, 54.1 37.11, 73.4 15.67 M25 74.76 C34.12 65.35, 48.05 51.16, 74.37 18.47 M24.64 77.16 C43.91 54.18, 62.97 32.69, 74.89 18.69 M30.61 76.32 C38.57 65.27, 52.91 54.49, 76.8 23.02 M29.01 77.08 C39.72 65.34, 51.13 52.66, 77.31 22.35 M35.37 76.36 C47.68 64.95, 60.62 49.56, 79.89 26.08 M35.19 77.75 C43.39 67.19, 52.96 56.6, 80.68 24.69 M38.36 79.52 C50.38 63.93, 63.14 47.04, 84.48 27.01 M38.59 79.74 C51.5 64.58, 62.91 52.49, 82.78 27.9 M42.09 79.88 C52.79 67.03, 64.61 57.46, 87.41 32.26 M43.92 80.01 C59.49 61.59, 77.07 41.75, 85.43 30.95 M48.78 83.11 C57.93 69.28, 66.23 58.36, 87.16 36.5 M48.05 80.3 C58.1 69.03, 68.08 55.99, 84.76 37.1 M56.47 75.55 C66.32 69.01, 73.1 55.63, 86.54 44.21 M56.88 76.57 C65.64 66.07, 75.8 54.14, 84.6 43.72 M64.14 71.2 C72.6 66.44, 78.23 56.54, 83.75 50.34 M65.11 72.25 C72.67 65.23, 80.51 56.77, 84.22 51.33" stroke="#7950f2" stroke-width="0.5" fill="none"></path><path d="M48.43 0.45 C55.43 1.17, 64.11 5.93, 69.91 10.65 C75.71 15.38, 81.03 22.03, 83.21 28.78 C85.38 35.54, 85.41 44.2, 82.96 51.16 C80.51 58.12, 74.48 65.73, 68.51 70.55 C62.55 75.37, 54.55 79.37, 47.16 80.09 C39.77 80.82, 31.05 78.14, 24.17 74.9 C17.28 71.65, 9.78 66.63, 5.84 60.61 C1.89 54.59, 0.14 46.04, 0.5 38.76 C0.85 31.48, 4.01 22.68, 7.98 16.94 C11.96 11.2, 16.04 6.62, 24.34 4.3 C32.63 1.99, 51.24 2.56, 57.76 3.07 C64.28 3.57, 63.71 6.98, 63.44 7.34 M34.27 0.34 C41.34 -1.82, 49.18 -0.52, 56.33 2.01 C63.48 4.54, 72.38 9.87, 77.16 15.5 C81.94 21.12, 84.74 28.72, 85.01 35.76 C85.27 42.8, 82.53 51.29, 78.74 57.73 C74.94 64.17, 68.62 71.02, 62.24 74.4 C55.86 77.77, 47.97 78.3, 40.46 77.98 C32.95 77.66, 23.71 76.29, 17.19 72.48 C10.66 68.68, 3.99 61.8, 1.29 55.17 C-1.4 48.55, -0.95 39.85, 0.99 32.73 C2.93 25.62, 7.5 17.59, 12.91 12.45 C18.33 7.32, 30.13 3.63, 33.48 1.93 C36.82 0.23, 33.03 1.78, 32.99 2.26" stroke="#000000" stroke-width="1" fill="none"></path></g><g stroke-linecap="round"><g transform="translate(100.703125 122.27734375) rotate(0 50.634041119366884 -22.119798671623812)"><path d="M-0.84 -0.12 C9.65 -0.55, 44.74 4.12, 61.9 -3.47 C79.05 -11.06, 95.29 -38.88, 102.11 -45.66 M0.92 -1.24 C11.34 -1.38, 44.17 5.29, 60.95 -1.97 C77.72 -9.23, 95.06 -37.4, 101.56 -44.8" stroke="#000000" stroke-width="1" fill="none"></path></g></g><mask></mask><g stroke-linecap="round"><g transform="translate(218.2109375 58.734375) rotate(0 58.208984375 -11.53338651883314)"><path d="M0 0 C8.22 -5.64, 29.94 -35.65, 49.35 -33.84 C68.75 -32.03, 105.24 3.41, 116.42 10.86 M0 0 C8.22 -5.64, 29.94 -35.65, 49.35 -33.84 C68.75 -32.03, 105.24 3.41, 116.42 10.86" stroke="#000000" stroke-width="1" fill="none"></path></g><g transform="translate(218.2109375 58.734375) rotate(0 58.208984375 -11.53338651883314)"><path d="M87.99 1.26 C98.35 4.76, 108.71 8.25, 116.42 10.86 M87.99 1.26 C98.32 4.74, 108.64 8.23, 116.42 10.86" stroke="#000000" stroke-width="1" fill="none"></path></g><g transform="translate(218.2109375 58.734375) rotate(0 58.208984375 -11.53338651883314)"><path d="M100.81 -14.77 C106.5 -5.43, 112.19 3.91, 116.42 10.86 M100.81 -14.77 C106.48 -5.46, 112.15 3.84, 116.42 10.86" stroke="#000000" stroke-width="1" fill="none"></path></g></g><mask></mask><g stroke-linecap="round"><g transform="translate(191.8786527138202 44.373844519969225) rotate(340.1183784790419 12.763671875 22.919921875)"><path d="M0 0 C4.25 7.64, 21.27 38.2, 25.53 45.84 M0 0 C4.25 7.64, 21.27 38.2, 25.53 45.84" stroke="#000000" stroke-width="1" fill="none"></path></g></g><mask></mask><g stroke-linecap="round"><g transform="translate(200.22682397005894 36.808840916593) rotate(340.1183784790419 12.408203125 22.69921875)"><path d="M0 0 C4.14 7.57, 20.68 37.83, 24.82 45.4 M0 0 C4.14 7.57, 20.68 37.83, 24.82 45.4" stroke="#000000" stroke-width="1" fill="none"></path></g></g><mask></mask></svg>