<?xml version="1.0" encoding="UTF-8" standalone="no"?>
<!DOCTYPE svg PUBLIC "-//W3C//DTD SVG 1.1//EN"
 "http://www.w3.org/Graphics/SVG/1.1/DTD/svg11.dtd">
<!-- Generated by graphviz version 8.1.0 (20230707.0739)
 -->
<!-- Title: G Pages: 1 -->
<svg width="570pt" height="122pt"
 viewBox="0.00 0.00 570.00 122.00" xmlns="http://www.w3.org/2000/svg" xmlns:xlink="http://www.w3.org/1999/xlink">
<g id="graph0" class="graph" transform="scale(1 1) rotate(0) translate(4 118)">
<title>G</title>
<!-- UserCenter -->
<g id="node1" class="node">
<title>UserCenter</title>
<polyline fill="none" stroke="black" points="218.75,-105 227.75,-105"/>
<polyline fill="none" stroke="black" points="308.75,-114 227.75,-114 227.75,-105"/>
<polyline fill="none" stroke="black" points="317.75,-105 317.75,-114 308.75,-114"/>
<polyline fill="none" stroke="black" points="218.75,-105 218.75,-68"/>
<polyline fill="none" stroke="black" points="308.75,-105 227.75,-105"/>
<text text-anchor="start" x="239.75" y="-83.33" font-family="Times,serif" font-size="14.00" fill="#c475db">用户中心</text>
<polyline fill="none" stroke="black" points="308.75,-105 308.75,-68"/>
<polyline fill="none" stroke="black" points="317.75,-68 317.75,-105"/>
<polyline fill="none" stroke="black" points="218.75,-68 218.75,-59 227.75,-59"/>
<polyline fill="none" stroke="black" points="227.75,-59 308.75,-59"/>
<polyline fill="none" stroke="black" points="317.75,-68 308.75,-68 308.75,-59"/>
</g>
<!-- CenterApp -->
<g id="node3" class="node">
<title>CenterApp</title>
<polyline fill="none" stroke="black" points="463,-65 472,-65"/>
<polyline fill="none" stroke="black" points="553,-74 472,-74 472,-65"/>
<polyline fill="none" stroke="black" points="562,-65 562,-74 553,-74"/>
<polyline fill="none" stroke="black" points="463,-65 463,-42"/>
<polyline fill="none" stroke="black" points="553,-65 472,-65"/>
<text text-anchor="start" x="484" y="-48.7" font-family="Times,serif" font-size="14.00" fill="#c475db">应用中心</text>
<polyline fill="none" stroke="black" points="553,-65 553,-42"/>
<polyline fill="none" stroke="black" points="562,-42 562,-65"/>
<polyline fill="none" stroke="black" points="463,-42 463,-33 472,-33"/>
<polyline fill="none" stroke="black" points="472,-33 553,-33"/>
<polyline fill="none" stroke="black" points="562,-42 553,-42 553,-33"/>
</g>
<!-- UserCenter&#45;&gt;CenterApp -->
<g id="edge4" class="edge">
<title>UserCenter&#45;&gt;CenterApp</title>
<path fill="none" stroke="#a69fe0" d="M328.45,-78.44C369.82,-72.8 424.38,-65.37 463.14,-60.09"/>
<polygon fill="#a69fe0" stroke="#a69fe0" points="328.13,-75.08 318.69,-79.9 329.07,-82.02 328.13,-75.08"/>
<text text-anchor="middle" x="390.38" y="-81.45" font-family="Times,serif" font-size="14.00" fill="white">微服务接口</text>
</g>
<!-- BPMCenter -->
<g id="node2" class="node">
<title>BPMCenter</title>
<polyline fill="none" stroke="black" points="218.75,-32 227.75,-32"/>
<polyline fill="none" stroke="black" points="308.75,-41 227.75,-41 227.75,-32"/>
<polyline fill="none" stroke="black" points="317.75,-32 317.75,-41 308.75,-41"/>
<polyline fill="none" stroke="black" points="218.75,-32 218.75,-9"/>
<polyline fill="none" stroke="black" points="308.75,-32 227.75,-32"/>
<text text-anchor="start" x="239.75" y="-15.7" font-family="Times,serif" font-size="14.00" fill="#c475db">流程中心</text>
<polyline fill="none" stroke="black" points="308.75,-32 308.75,-9"/>
<polyline fill="none" stroke="black" points="317.75,-9 317.75,-32"/>
<polyline fill="none" stroke="black" points="218.75,-9 218.75,0 227.75,0"/>
<polyline fill="none" stroke="black" points="227.75,0 308.75,0"/>
<polyline fill="none" stroke="black" points="317.75,-9 308.75,-9 308.75,0"/>
</g>
<!-- BPMCenter&#45;&gt;CenterApp -->
<g id="edge3" class="edge">
<title>BPMCenter&#45;&gt;CenterApp</title>
<path fill="none" stroke="#a69fe0" d="M328.54,-28.2C357.87,-32.04 393.81,-36.81 426,-41.25 438.03,-42.91 451.01,-44.74 463.13,-46.48"/>
<polygon fill="#a69fe0" stroke="#a69fe0" points="329.01,-24.6 318.64,-26.77 328.1,-31.54 329.01,-24.6"/>
<text text-anchor="middle" x="390.38" y="-48.45" font-family="Times,serif" font-size="14.00" fill="white">微服务接口</text>
</g>
<!-- OA -->
<g id="node4" class="node">
<title>OA</title>
<path fill="none" stroke="black" d="M42,-71.5C42,-71.5 12,-71.5 12,-71.5 6,-71.5 0,-65.5 0,-59.5 0,-59.5 0,-47.5 0,-47.5 0,-41.5 6,-35.5 12,-35.5 12,-35.5 42,-35.5 42,-35.5 48,-35.5 54,-41.5 54,-47.5 54,-47.5 54,-59.5 54,-59.5 54,-65.5 48,-71.5 42,-71.5"/>
<text text-anchor="middle" x="27" y="-48.45" font-family="Times,serif" font-size="14.00" fill="#c475db">OA</text>
</g>
<!-- OA&#45;&gt;UserCenter -->
<g id="edge1" class="edge">
<title>OA&#45;&gt;UserCenter</title>
<path fill="none" stroke="#a69fe0" d="M64.74,-58.57C106.06,-64.27 173.35,-73.55 218.92,-79.83"/>
<polygon fill="#a69fe0" stroke="#a69fe0" points="65.44,-54.99 55.06,-57.09 64.49,-61.93 65.44,-54.99"/>
<text text-anchor="middle" x="136.38" y="-81.45" font-family="Times,serif" font-size="14.00" fill="white">HTTP API 接口</text>
</g>
<!-- OA&#45;&gt;BPMCenter -->
<g id="edge2" class="edge">
<title>OA&#45;&gt;BPMCenter</title>
<path fill="none" stroke="#a69fe0" d="M64.88,-42.95C73.41,-40.8 82.47,-38.75 91,-37.25 133.99,-29.71 183.52,-25.38 219.1,-23.02"/>
<polygon fill="#a69fe0" stroke="#a69fe0" points="64.25,-39.76 55.47,-45.68 66.03,-46.53 64.25,-39.76"/>
<text text-anchor="middle" x="136.38" y="-44.45" font-family="Times,serif" font-size="14.00" fill="white">HTTP API 接口</text>
</g>
</g>
</svg>
