<?xml version="1.0" encoding="UTF-8" standalone="no"?>
<!DOCTYPE svg PUBLIC "-//W3C//DTD SVG 1.1//EN"
 "http://www.w3.org/Graphics/SVG/1.1/DTD/svg11.dtd">
<!-- Generated by graphviz version 7.1.0 (20230121.1956)
 -->
<!-- Title: G Pages: 1 -->
<svg width="571pt" height="122pt"
 viewBox="0.00 0.00 571.00 122.00" xmlns="http://www.w3.org/2000/svg" xmlns:xlink="http://www.w3.org/1999/xlink">
<g id="graph0" class="graph" transform="scale(1 1) rotate(0) translate(4 118)">
<title>G</title>
<!-- UserCenter -->
<g id="node1" class="node">
<title>UserCenter</title>
<polyline fill="none" stroke="black" points="219.5,-104.5 228.5,-104.5"/>
<polyline fill="none" stroke="black" points="309.5,-113.5 228.5,-113.5 228.5,-104.5"/>
<polyline fill="none" stroke="black" points="318.5,-104.5 318.5,-113.5 309.5,-113.5"/>
<polyline fill="none" stroke="black" points="219.5,-104.5 219.5,-67.5"/>
<polyline fill="none" stroke="black" points="309.5,-104.5 228.5,-104.5"/>
<text text-anchor="start" x="240" y="-82.3" font-family="Times,serif" font-size="14.00" fill="#c475db">用户中心</text>
<polyline fill="none" stroke="black" points="309.5,-104.5 309.5,-67.5"/>
<polyline fill="none" stroke="black" points="318.5,-67.5 318.5,-104.5"/>
<polyline fill="none" stroke="black" points="219.5,-67.5 219.5,-58.5 228.5,-58.5"/>
<polyline fill="none" stroke="black" points="228.5,-58.5 309.5,-58.5"/>
<polyline fill="none" stroke="black" points="318.5,-67.5 309.5,-67.5 309.5,-58.5"/>
</g>
<!-- CenterApp -->
<g id="node3" class="node">
<title>CenterApp</title>
<polyline fill="none" stroke="black" points="464.5,-63.5 473.5,-63.5"/>
<polyline fill="none" stroke="black" points="554.5,-72.5 473.5,-72.5 473.5,-63.5"/>
<polyline fill="none" stroke="black" points="563.5,-63.5 563.5,-72.5 554.5,-72.5"/>
<polyline fill="none" stroke="black" points="464.5,-63.5 464.5,-40.5"/>
<polyline fill="none" stroke="black" points="554.5,-63.5 473.5,-63.5"/>
<text text-anchor="start" x="485" y="-48.3" font-family="Times,serif" font-size="14.00" fill="#c475db">应用中心</text>
<polyline fill="none" stroke="black" points="554.5,-63.5 554.5,-40.5"/>
<polyline fill="none" stroke="black" points="563.5,-40.5 563.5,-63.5"/>
<polyline fill="none" stroke="black" points="464.5,-40.5 464.5,-31.5 473.5,-31.5"/>
<polyline fill="none" stroke="black" points="473.5,-31.5 554.5,-31.5"/>
<polyline fill="none" stroke="black" points="563.5,-40.5 554.5,-40.5 554.5,-31.5"/>
</g>
<!-- UserCenter&#45;&gt;CenterApp -->
<g id="edge4" class="edge">
<title>UserCenter&#45;&gt;CenterApp</title>
<path fill="none" stroke="#a69fe0" d="M329.15,-78.15C370.73,-72.34 425.48,-64.68 464.29,-59.25"/>
<polygon fill="#a69fe0" stroke="#a69fe0" points="328.72,-74.68 319.3,-79.53 329.69,-81.61 328.72,-74.68"/>
<text text-anchor="middle" x="391" y="-78.3" font-family="Times,serif" font-size="14.00" fill="white">微服务接口</text>
</g>
<!-- BPMCenter -->
<g id="node2" class="node">
<title>BPMCenter</title>
<polyline fill="none" stroke="black" points="219.5,-31.5 228.5,-31.5"/>
<polyline fill="none" stroke="black" points="309.5,-40.5 228.5,-40.5 228.5,-31.5"/>
<polyline fill="none" stroke="black" points="318.5,-31.5 318.5,-40.5 309.5,-40.5"/>
<polyline fill="none" stroke="black" points="219.5,-31.5 219.5,-8.5"/>
<polyline fill="none" stroke="black" points="309.5,-31.5 228.5,-31.5"/>
<text text-anchor="start" x="240" y="-16.3" font-family="Times,serif" font-size="14.00" fill="#c475db">流程中心</text>
<polyline fill="none" stroke="black" points="309.5,-31.5 309.5,-8.5"/>
<polyline fill="none" stroke="black" points="318.5,-8.5 318.5,-31.5"/>
<polyline fill="none" stroke="black" points="219.5,-8.5 219.5,0.5 228.5,0.5"/>
<polyline fill="none" stroke="black" points="228.5,0.5 309.5,0.5"/>
<polyline fill="none" stroke="black" points="318.5,-8.5 309.5,-8.5 309.5,0.5"/>
</g>
<!-- BPMCenter&#45;&gt;CenterApp -->
<g id="edge3" class="edge">
<title>BPMCenter&#45;&gt;CenterApp</title>
<path fill="none" stroke="#a69fe0" d="M329.15,-28.36C370.73,-33.83 425.48,-41.04 464.29,-46.15"/>
<polygon fill="#a69fe0" stroke="#a69fe0" points="329.67,-24.89 319.3,-27.06 328.76,-31.83 329.67,-24.89"/>
<text text-anchor="middle" x="391" y="-45.3" font-family="Times,serif" font-size="14.00" fill="white">微服务接口</text>
</g>
<!-- OA -->
<g id="node4" class="node">
<title>OA</title>
<path fill="none" stroke="black" d="M42,-70.5C42,-70.5 12,-70.5 12,-70.5 6,-70.5 0,-64.5 0,-58.5 0,-58.5 0,-46.5 0,-46.5 0,-40.5 6,-34.5 12,-34.5 12,-34.5 42,-34.5 42,-34.5 48,-34.5 54,-40.5 54,-46.5 54,-46.5 54,-58.5 54,-58.5 54,-64.5 48,-70.5 42,-70.5"/>
<text text-anchor="middle" x="27" y="-48.8" font-family="Times,serif" font-size="14.00" fill="#c475db">OA</text>
</g>
<!-- OA&#45;&gt;UserCenter -->
<g id="edge1" class="edge">
<title>OA&#45;&gt;UserCenter</title>
<path fill="none" stroke="#a69fe0" d="M65.75,-60.41C67.86,-60.79 69.95,-61.16 72,-61.5 121.96,-69.79 179.49,-76.85 219.15,-81.33"/>
<polygon fill="#a69fe0" stroke="#a69fe0" points="66.43,-56.98 55.95,-58.53 65.11,-63.85 66.43,-56.98"/>
<text text-anchor="middle" x="136.5" y="-80.3" font-family="Times,serif" font-size="14.00" fill="white">HTTP API 接口</text>
</g>
<!-- OA&#45;&gt;BPMCenter -->
<g id="edge2" class="edge">
<title>OA&#45;&gt;BPMCenter</title>
<path fill="none" stroke="#a69fe0" d="M65.3,-47.52C106.72,-41.98 173.7,-33.03 219.12,-26.96"/>
<polygon fill="#a69fe0" stroke="#a69fe0" points="65.04,-44.02 55.59,-48.81 65.96,-50.96 65.04,-44.02"/>
<text text-anchor="middle" x="136.5" y="-48.3" font-family="Times,serif" font-size="14.00" fill="white">HTTP API 接口</text>
</g>
</g>
</svg>
