<?xml version="1.0" encoding="UTF-8" standalone="no"?>
<!DOCTYPE svg PUBLIC "-//W3C//DTD SVG 1.1//EN"
 "http://www.w3.org/Graphics/SVG/1.1/DTD/svg11.dtd">
<!-- Generated by graphviz version 9.0.0 (20230911.1827)
 -->
<!-- Title: G Pages: 1 -->
<svg width="570pt" height="122pt"
 viewBox="0.00 0.00 570.00 122.00" xmlns="http://www.w3.org/2000/svg" xmlns:xlink="http://www.w3.org/1999/xlink">
<g id="graph0" class="graph" transform="scale(1 1) rotate(0) translate(4 118)">
<title>G</title>
<!-- UserCenter -->
<g id="node1" class="node">
<title>UserCenter</title>
<polyline fill="none" stroke="black" points="218.75,-105 227.75,-105"/>
<polyline fill="none" stroke="black" points="308.75,-114 227.75,-114 227.75,-105"/>
<polyline fill="none" stroke="black" points="317.75,-105 317.75,-114 308.75,-114"/>
<polyline fill="none" stroke="black" points="218.75,-105 218.75,-68"/>
<polyline fill="none" stroke="black" points="308.75,-105 227.75,-105"/>
<text text-anchor="start" x="239.75" y="-83.33" font-family="Times,serif" font-size="14.00" fill="#c475db">用户中心</text>
<polyline fill="none" stroke="black" points="308.75,-105 308.75,-68"/>
<polyline fill="none" stroke="black" points="317.75,-68 317.75,-105"/>
<polyline fill="none" stroke="black" points="218.75,-68 218.75,-59 227.75,-59"/>
<polyline fill="none" stroke="black" points="227.75,-59 308.75,-59"/>
<polyline fill="none" stroke="black" points="317.75,-68 308.75,-68 308.75,-59"/>
</g>
<!-- CenterApp -->
<g id="node3" class="node">
<title>CenterApp</title>
<polyline fill="none" stroke="black" points="463,-65 472,-65"/>
<polyline fill="none" stroke="black" points="553,-74 472,-74 472,-65"/>
<polyline fill="none" stroke="black" points="562,-65 562,-74 553,-74"/>
<polyline fill="none" stroke="black" points="463,-65 463,-42"/>
<polyline fill="none" stroke="black" points="553,-65 472,-65"/>
<text text-anchor="start" x="484" y="-48.7" font-family="Times,serif" font-size="14.00" fill="#c475db">应用中心</text>
<polyline fill="none" stroke="black" points="553,-65 553,-42"/>
<polyline fill="none" stroke="black" points="562,-42 562,-65"/>
<polyline fill="none" stroke="black" points="463,-42 463,-33 472,-33"/>
<polyline fill="none" stroke="black" points="472,-33 553,-33"/>
<polyline fill="none" stroke="black" points="562,-42 553,-42 553,-33"/>
</g>
<!-- UserCenter&#45;&gt;CenterApp -->
<g id="edge4" class="edge">
<title>UserCenter&#45;&gt;CenterApp</title>
<path fill="none" stroke="#a69fe0" d="M328.97,-78.36C370.28,-72.74 424.55,-65.35 463.14,-60.09"/>
<polygon fill="#a69fe0" stroke="#a69fe0" points="328.63,-74.88 319.19,-79.7 329.57,-81.82 328.63,-74.88"/>
<text text-anchor="middle" x="390.38" y="-81.45" font-family="Times,serif" font-size="14.00" fill="white">微服务接口</text>
</g>
<!-- BPMCenter -->
<g id="node2" class="node">
<title>BPMCenter</title>
<polyline fill="none" stroke="black" points="218.75,-32 227.75,-32"/>
<polyline fill="none" stroke="black" points="308.75,-41 227.75,-41 227.75,-32"/>
<polyline fill="none" stroke="black" points="317.75,-32 317.75,-41 308.75,-41"/>
<polyline fill="none" stroke="black" points="218.75,-32 218.75,-9"/>
<polyline fill="none" stroke="black" points="308.75,-32 227.75,-32"/>
<text text-anchor="start" x="239.75" y="-15.7" font-family="Times,serif" font-size="14.00" fill="#c475db">流程中心</text>
<polyline fill="none" stroke="black" points="308.75,-32 308.75,-9"/>
<polyline fill="none" stroke="black" points="317.75,-9 317.75,-32"/>
<polyline fill="none" stroke="black" points="218.75,-9 218.75,0 227.75,0"/>
<polyline fill="none" stroke="black" points="227.75,0 308.75,0"/>
<polyline fill="none" stroke="black" points="317.75,-9 308.75,-9 308.75,0"/>
</g>
<!-- BPMCenter&#45;&gt;CenterApp -->
<g id="edge3" class="edge">
<title>BPMCenter&#45;&gt;CenterApp</title>
<path fill="none" stroke="#a69fe0" d="M328.92,-28.25C358.19,-32.08 393.95,-36.83 426,-41.25 438.03,-42.91 451.01,-44.74 463.13,-46.48"/>
<polygon fill="#a69fe0" stroke="#a69fe0" points="329.51,-24.79 319.14,-26.97 328.6,-31.73 329.51,-24.79"/>
<text text-anchor="middle" x="390.38" y="-48.45" font-family="Times,serif" font-size="14.00" fill="white">微服务接口</text>
</g>
<!-- OA -->
<g id="node4" class="node">
<title>OA</title>
<path fill="none" stroke="black" d="M42,-71.5C42,-71.5 12,-71.5 12,-71.5 6,-71.5 0,-65.5 0,-59.5 0,-59.5 0,-47.5 0,-47.5 0,-41.5 6,-35.5 12,-35.5 12,-35.5 42,-35.5 42,-35.5 48,-35.5 54,-41.5 54,-47.5 54,-47.5 54,-59.5 54,-59.5 54,-65.5 48,-71.5 42,-71.5"/>
<text text-anchor="middle" x="27" y="-48.45" font-family="Times,serif" font-size="14.00" fill="#c475db">OA</text>
</g>
<!-- OA&#45;&gt;UserCenter -->
<g id="edge1" class="edge">
<title>OA&#45;&gt;UserCenter</title>
<path fill="none" stroke="#a69fe0" d="M65.27,-58.64C106.64,-64.35 173.55,-73.58 218.92,-79.83"/>
<polygon fill="#a69fe0" stroke="#a69fe0" points="65.94,-55.2 55.56,-57.3 64.99,-62.13 65.94,-55.2"/>
<text text-anchor="middle" x="136.38" y="-81.45" font-family="Times,serif" font-size="14.00" fill="white">HTTP API 接口</text>
</g>
<!-- OA&#45;&gt;BPMCenter -->
<g id="edge2" class="edge">
<title>OA&#45;&gt;BPMCenter</title>
<path fill="none" stroke="#a69fe0" d="M65.45,-42.81C73.81,-40.71 82.66,-38.71 91,-37.25 133.99,-29.71 183.52,-25.38 219.1,-23.02"/>
<polygon fill="#a69fe0" stroke="#a69fe0" points="64.72,-39.38 55.93,-45.3 66.49,-46.15 64.72,-39.38"/>
<text text-anchor="middle" x="136.38" y="-44.45" font-family="Times,serif" font-size="14.00" fill="white">HTTP API 接口</text>
</g>
</g>
</svg>
